<svg width="90" height="36" viewBox="0 0 90 36" fill="none" xmlns="http://www.w3.org/2000/svg">
<path fill-rule="evenodd" clip-rule="evenodd" d="M3.6053 9.72119C2.41237 9.72119 1.44531 10.6883 1.44531 11.8812V25.5612C1.44531 26.7541 2.41237 27.7212 3.6053 27.7212H16.5652C17.7581 27.7212 18.7252 26.7541 18.7252 25.5612V11.8812C18.7252 10.6883 17.7581 9.72119 16.5652 9.72119H3.6053ZM12.9645 16.9198C12.9645 18.1455 12.1988 19.1923 11.1197 19.6081L12.9645 23.7598H7.20455L9.04998 19.6084C7.97052 19.1927 7.20455 18.1457 7.20455 16.9198C7.20455 15.3292 8.49396 14.0398 10.0845 14.0398C11.6751 14.0398 12.9645 15.3292 12.9645 16.9198Z" fill="#A2A7A9"/>
<path fill-rule="evenodd" clip-rule="evenodd" d="M10.086 3.59848C7.50137 3.59848 5.40608 5.69378 5.40608 8.27848H3.24609C3.24609 4.50085 6.30844 1.43848 10.086 1.43848C13.8636 1.43848 16.926 4.50085 16.926 8.27848H14.766C14.766 5.69378 12.6707 3.59848 10.086 3.59848Z" fill="#A2A7A9"/>
<path fill-rule="evenodd" clip-rule="evenodd" d="M20.8828 11.8757V24.8357H27.3628C29.1627 24.8357 32.4027 23.7557 32.4027 20.5157V16.5557C32.4027 14.3957 30.1555 11.8757 27.3628 11.8757H20.8828ZM24.4828 14.7557V21.9557H27.3628C27.8428 21.8357 28.8028 21.3797 28.8028 20.5157V16.5557C28.6828 15.9557 28.1548 14.7557 27.0028 14.7557H24.4828Z" fill="#A2A7A9"/>
<path d="M33.8438 12.2385V25.1985H37.4437V15.8385L39.6037 24.8385H42.4837L44.6437 16.5585V25.1985H48.2436V12.2385H42.8437L41.0437 19.7985L38.8837 12.2385H33.8438Z" fill="#A2A7A9"/>
<path fill-rule="evenodd" clip-rule="evenodd" d="M59.7635 26.6386C64.3364 26.6386 68.0434 22.9315 68.0434 18.3586C68.0434 13.7856 64.3364 10.0786 59.7635 10.0786C55.1906 10.0786 51.4836 13.7856 51.4836 18.3586C51.4836 22.9315 55.1906 26.6386 59.7635 26.6386ZM59.7635 28.4386C65.3305 28.4386 69.8434 23.9256 69.8434 18.3586C69.8434 12.7915 65.3305 8.27856 59.7635 8.27856C54.1965 8.27856 49.6836 12.7915 49.6836 18.3586C49.6836 23.9256 54.1965 28.4386 59.7635 28.4386Z" fill="#A2A7A9"/>
<path fill-rule="evenodd" clip-rule="evenodd" d="M65.1956 16.1942H62.2578C61.7598 14.903 60.8291 14.0343 59.7632 14.0343C58.1726 14.0343 56.8832 15.9685 56.8832 18.3543C56.8832 20.7402 58.1726 22.6743 59.7632 22.6743C61.0171 22.6743 62.0839 21.4722 62.4793 19.7942H65.3814C64.7998 22.6807 62.5055 24.8357 59.7639 24.8357C56.5827 24.8357 54.0039 21.9345 54.0039 18.3557C54.0039 14.7769 56.5827 11.8757 59.7639 11.8757C62.2713 11.8757 64.4045 13.6782 65.1956 16.1942Z" fill="#A2A7A9"/>
<path fill-rule="evenodd" clip-rule="evenodd" d="M69.8477 25.5586L74.5276 12.5986H78.8476L83.8875 25.5586H79.9276L79.2076 23.3986H74.5276L73.8076 25.5586H69.8477ZM77.049 15.4785L74.889 20.5213H79.209C78.5534 18.8741 77.049 15.4785 77.049 15.4785Z" fill="#A2A7A9"/>
<rect x="85.6836" y="23.3984" width="2.15998" height="2.16" fill="#A2A7A9"/>
<path d="M87.3782 20.5702C87.3782 20.4784 87.3601 20.3963 87.324 20.3242C87.288 20.252 87.2371 20.1945 87.1715 20.1519C87.1058 20.1076 87.0296 20.0838 86.9426 20.0805L86.9426 19.4677C87.1231 19.471 87.2847 19.5219 87.4274 19.6203C87.5701 19.7188 87.6833 19.85 87.767 20.0141C87.849 20.1765 87.8901 20.3586 87.8901 20.5604C87.8901 20.7655 87.8556 20.9443 87.7867 21.0969C87.7178 21.2495 87.6218 21.3766 87.4988 21.4783C87.3757 21.5784 87.233 21.6539 87.0706 21.7047C86.9082 21.754 86.7342 21.7786 86.5489 21.7786L86.4701 21.7786C86.2847 21.7786 86.1108 21.754 85.9484 21.7047C85.786 21.6539 85.6432 21.5784 85.5202 21.4783C85.3971 21.3766 85.3012 21.2495 85.2323 21.0969C85.1634 20.9443 85.1289 20.7663 85.1289 20.5629C85.1289 20.3479 85.1707 20.1593 85.2544 19.9968C85.3381 19.8328 85.4562 19.7048 85.6088 19.6129C85.7614 19.5194 85.941 19.471 86.1477 19.4677L86.1477 20.0805C86.0526 20.0838 85.9673 20.1051 85.8918 20.1445C85.8163 20.1839 85.7556 20.2397 85.7097 20.3118C85.6637 20.384 85.6408 20.4718 85.6408 20.5752C85.6408 20.6851 85.6637 20.777 85.7097 20.8508C85.7556 20.923 85.8188 20.9796 85.8992 21.0206C85.9779 21.06 86.0665 21.0879 86.165 21.1043C86.2617 21.119 86.3635 21.1264 86.4701 21.1264L86.5489 21.1264C86.6571 21.1264 86.7605 21.119 86.8589 21.1043C86.9574 21.0879 87.046 21.06 87.1247 21.0206C87.2018 20.9796 87.2633 20.923 87.3093 20.8508C87.3552 20.777 87.3782 20.6834 87.3782 20.5702Z" fill="#A2A7A9"/>
<path d="M86.5366 19.1503L86.4849 19.1503C86.2896 19.1503 86.11 19.1224 85.9459 19.0666C85.7802 19.0108 85.6367 18.9296 85.5153 18.823C85.3939 18.7163 85.2995 18.5859 85.2323 18.4317C85.1634 18.2775 85.1289 18.1019 85.1289 17.905C85.1289 17.7049 85.1634 17.5277 85.2323 17.3735C85.2995 17.2176 85.3939 17.0864 85.5153 16.9797C85.6367 16.8731 85.7802 16.7919 85.9459 16.7361C86.11 16.6803 86.2896 16.6524 86.4849 16.6524L86.5366 16.6524C86.7301 16.6524 86.9098 16.6803 87.0755 16.7361C87.2396 16.7919 87.3831 16.8731 87.5062 16.9797C87.6276 17.0864 87.7219 17.2168 87.7892 17.371C87.8564 17.5252 87.8901 17.7016 87.8901 17.9001C87.8901 18.097 87.8564 18.2734 87.7892 18.4292C87.7219 18.5851 87.6276 18.7163 87.5062 18.823C87.3831 18.9296 87.2396 19.0108 87.0755 19.0666C86.9098 19.1224 86.7301 19.1503 86.5366 19.1503ZM86.4849 18.5006L86.5366 18.5006C86.653 18.5006 86.7621 18.4891 86.8639 18.4661C86.9656 18.4432 87.055 18.4079 87.1321 18.3603C87.2092 18.3127 87.2699 18.2512 87.3142 18.1758C87.3569 18.0986 87.3782 18.0068 87.3782 17.9001C87.3782 17.7951 87.3569 17.7049 87.3142 17.6294C87.2699 17.554 87.2092 17.4924 87.1321 17.4449C87.055 17.3956 86.9656 17.3595 86.8639 17.3366C86.7621 17.3136 86.653 17.3021 86.5366 17.3021L86.4849 17.3021C86.37 17.3021 86.2626 17.3136 86.1625 17.3366C86.0608 17.3595 85.9714 17.3956 85.8943 17.4449C85.8155 17.4924 85.754 17.5548 85.7097 17.6319C85.6637 17.7074 85.6408 17.7984 85.6408 17.905C85.6408 18.01 85.6637 18.1003 85.7097 18.1758C85.754 18.2512 85.8155 18.3127 85.8943 18.3603C85.9714 18.4079 86.0608 18.4432 86.1625 18.4661C86.2626 18.4891 86.37 18.5006 86.4849 18.5006Z" fill="#A2A7A9"/>
<path d="M85.7244 15.5327L87.8408 15.5327L87.8408 16.1824L85.1781 16.1824L85.1781 15.5696L85.7244 15.5327ZM86.4135 15.6287L86.4135 15.828C86.2281 15.828 86.0575 15.8059 85.9016 15.7616C85.7458 15.7156 85.6104 15.6484 85.4956 15.5598C85.3791 15.4712 85.2889 15.3621 85.2249 15.2325C85.1609 15.1012 85.1289 14.9495 85.1289 14.7772C85.1289 14.6574 85.147 14.5475 85.183 14.4474C85.2175 14.3474 85.2725 14.2612 85.3479 14.189C85.4218 14.1152 85.5186 14.0586 85.6383 14.0192C85.7564 13.9799 85.8984 13.9602 86.0641 13.9602L87.8408 13.9602L87.8408 14.6099L86.1305 14.6099C86.0058 14.6099 85.9082 14.6279 85.8377 14.664C85.7671 14.6984 85.7179 14.7485 85.69 14.8141C85.6605 14.8797 85.6457 14.9585 85.6457 15.0504C85.6457 15.1521 85.6662 15.2399 85.7072 15.3137C85.7466 15.3859 85.8016 15.4458 85.8721 15.4933C85.9426 15.5393 86.0239 15.5737 86.1157 15.5967C86.2076 15.618 86.3069 15.6287 86.4135 15.6287ZM86.2929 14.0094L86.3421 14.2776C86.1748 14.276 86.0181 14.253 85.8721 14.2087C85.7244 14.1644 85.5957 14.0996 85.4857 14.0143C85.3742 13.9274 85.2872 13.8199 85.2249 13.6919C85.1609 13.5623 85.1289 13.413 85.1289 13.244C85.1289 13.1128 85.1478 12.9947 85.1855 12.8897C85.2216 12.783 85.2798 12.692 85.3602 12.6165C85.439 12.541 85.5415 12.4836 85.6678 12.4442C85.7942 12.4032 85.9484 12.3827 86.1305 12.3827L87.8408 12.3827L87.8408 13.0373L86.128 13.0373C85.9984 13.0373 85.8992 13.0554 85.8303 13.0915C85.7614 13.1259 85.7138 13.1759 85.6875 13.2416C85.6596 13.3072 85.6457 13.3843 85.6457 13.4729C85.6457 13.5631 85.6629 13.6419 85.6974 13.7092C85.7302 13.7748 85.7761 13.8306 85.8352 13.8765C85.8943 13.9208 85.9632 13.9544 86.0419 13.9774C86.119 13.9987 86.2027 14.0094 86.2929 14.0094Z" fill="#A2A7A9"/>
<path d="M3.78045 32.4249H2.52802V31.7035H3.78045C3.9853 31.7035 4.15117 31.6701 4.27809 31.6033C4.40723 31.5342 4.50185 31.4407 4.56197 31.3227C4.62209 31.2025 4.65215 31.0656 4.65215 30.9119C4.65215 30.7627 4.62209 30.6236 4.56197 30.4944C4.50185 30.3653 4.40723 30.2607 4.27809 30.1805C4.15117 30.1003 3.9853 30.0603 3.78045 30.0603H2.82861V34.1983H1.91016V29.3355H3.78045C4.15897 29.3355 4.48182 29.4034 4.749 29.5392C5.01841 29.6728 5.22326 29.8588 5.36353 30.097C5.50603 30.333 5.57728 30.6024 5.57728 30.9052C5.57728 31.2192 5.50603 31.4897 5.36353 31.7168C5.22326 31.9439 5.01841 32.1187 4.749 32.2412C4.48182 32.3636 4.15897 32.4249 3.78045 32.4249Z" fill="#A2A7A9"/>
<path d="M6.36708 29.3355H8.13384C8.50345 29.3355 8.82073 29.3912 9.08569 29.5025C9.35065 29.6138 9.55437 29.7786 9.69687 29.9968C9.83937 30.215 9.91062 30.4833 9.91062 30.8017C9.91062 31.0533 9.86609 31.2715 9.77703 31.4563C9.68797 31.6411 9.56217 31.7959 9.39963 31.9206C9.23932 32.0452 9.05006 32.1432 8.83186 32.2145L8.54464 32.3614H6.98494L6.97826 31.6367H8.14386C8.33311 31.6367 8.49009 31.6033 8.61477 31.5365C8.73946 31.4697 8.83297 31.3773 8.89532 31.2593C8.95989 31.1413 8.99217 31.0066 8.99217 30.8551C8.99217 30.6926 8.961 30.5523 8.89866 30.4343C8.83631 30.3141 8.74169 30.2217 8.61477 30.1571C8.48786 30.0925 8.32755 30.0603 8.13384 30.0603H7.28552V34.1983H6.36708V29.3355ZM9.1124 34.1983L7.98689 32.0208L8.95877 32.0174L10.0977 34.1516V34.1983H9.1124Z" fill="#A2A7A9"/>
<path d="M14.7216 31.6433V31.8938C14.7216 32.2612 14.6726 32.5919 14.5746 32.8858C14.4766 33.1775 14.3375 33.4257 14.1571 33.6306C13.9768 33.8354 13.7619 33.9924 13.5125 34.1015C13.2632 34.2106 12.986 34.2651 12.6809 34.2651C12.3804 34.2651 12.1043 34.2106 11.8527 34.1015C11.6033 33.9924 11.3873 33.8354 11.2047 33.6306C11.0222 33.4257 10.8808 33.1775 10.7806 32.8858C10.6804 32.5919 10.6303 32.2612 10.6303 31.8938V31.6433C10.6303 31.2737 10.6804 30.9431 10.7806 30.6514C10.8808 30.3597 11.021 30.1115 11.2014 29.9066C11.3817 29.6996 11.5966 29.5415 11.846 29.4324C12.0976 29.3233 12.3737 29.2687 12.6743 29.2687C12.9793 29.2687 13.2565 29.3233 13.5059 29.4324C13.7552 29.5415 13.9701 29.6996 14.1505 29.9066C14.333 30.1115 14.4733 30.3597 14.5713 30.6514C14.6715 30.9431 14.7216 31.2737 14.7216 31.6433ZM13.7931 31.8938V31.6367C13.7931 31.3717 13.7686 31.139 13.7196 30.9386C13.6706 30.736 13.5983 30.5657 13.5025 30.4276C13.4068 30.2896 13.2888 30.1861 13.1485 30.117C13.0082 30.0458 12.8502 30.0102 12.6743 30.0102C12.4961 30.0102 12.338 30.0458 12.2 30.117C12.0642 30.1861 11.9484 30.2896 11.8527 30.4276C11.7569 30.5657 11.6834 30.736 11.6322 30.9386C11.5832 31.139 11.5588 31.3717 11.5588 31.6367V31.8938C11.5588 32.1566 11.5832 32.3892 11.6322 32.5919C11.6834 32.7945 11.7569 32.9659 11.8527 33.1062C11.9506 33.2442 12.0686 33.3489 12.2067 33.4201C12.3447 33.4914 12.5028 33.527 12.6809 33.527C12.8591 33.527 13.0171 33.4914 13.1552 33.4201C13.2932 33.3489 13.409 33.2442 13.5025 33.1062C13.5983 32.9659 13.6706 32.7945 13.7196 32.5919C13.7686 32.3892 13.7931 32.1566 13.7931 31.8938Z" fill="#A2A7A9"/>
<path d="M17.4618 29.3355V34.1983H16.5467V29.3355H17.4618ZM18.9714 29.3355V30.0603H15.0538V29.3355H18.9714Z" fill="#A2A7A9"/>
<path d="M22.8739 33.4769V34.1983H20.2889V33.4769H22.8739ZM20.5694 29.3355V34.1983H19.651V29.3355H20.5694ZM22.5366 31.3428V32.0475H20.2889V31.3428H22.5366ZM22.8639 29.3355V30.0603H20.2889V29.3355H22.8639Z" fill="#A2A7A9"/>
<path d="M26.4258 32.5985H27.3442C27.3197 32.9236 27.2295 33.212 27.0737 33.4636C26.9178 33.7129 26.7007 33.9089 26.4224 34.0514C26.1441 34.1939 25.8068 34.2651 25.4104 34.2651C25.1054 34.2651 24.8304 34.2117 24.5855 34.1048C24.3428 33.9957 24.1346 33.841 23.961 33.6406C23.7895 33.438 23.6582 33.1953 23.5669 32.9125C23.4756 32.6275 23.4299 32.308 23.4299 31.954V31.5832C23.4299 31.2292 23.4767 30.9097 23.5702 30.6247C23.6637 30.3397 23.7973 30.097 23.971 29.8966C24.1469 29.694 24.3573 29.5381 24.6022 29.429C24.8494 29.3199 25.1254 29.2654 25.4305 29.2654C25.8268 29.2654 26.1619 29.3389 26.4358 29.4858C26.7096 29.6305 26.9223 29.8298 27.0737 30.0836C27.2251 30.3375 27.3164 30.6292 27.3475 30.9587H26.4291C26.4113 30.7538 26.3667 30.5802 26.2955 30.4377C26.2265 30.2952 26.1218 30.1872 25.9816 30.1137C25.8435 30.038 25.6598 30.0001 25.4305 30.0001C25.2524 30.0001 25.0954 30.0335 24.9596 30.1003C24.826 30.1671 24.7147 30.2673 24.6256 30.4009C24.5365 30.5323 24.4697 30.6971 24.4252 30.8952C24.3807 31.0912 24.3584 31.3183 24.3584 31.5766V31.954C24.3584 32.2011 24.3784 32.4226 24.4185 32.6186C24.4586 32.8145 24.5209 32.9804 24.6056 33.1162C24.6902 33.252 24.7993 33.3556 24.9329 33.4268C25.0664 33.4981 25.2256 33.5337 25.4104 33.5337C25.6353 33.5337 25.8179 33.4981 25.9582 33.4268C26.1007 33.3556 26.2087 33.2509 26.2821 33.1129C26.3578 32.9748 26.4057 32.8034 26.4258 32.5985Z" fill="#A2A7A9"/>
<path d="M30.1112 29.3355V34.1983H29.1961V29.3355H30.1112ZM31.6208 29.3355V30.0603H27.7032V29.3355H31.6208Z" fill="#A2A7A9"/>
<path d="M35.5233 33.4769V34.1983H32.9383V33.4769H35.5233ZM33.2188 29.3355V34.1983H32.3004V29.3355H33.2188ZM35.186 31.3428V32.0475H32.9383V31.3428H35.186ZM35.5133 29.3355V30.0603H32.9383V29.3355H35.5133Z" fill="#A2A7A9"/>
<path d="M37.6824 34.1983H36.6337L36.6404 33.4769H37.6824C37.9652 33.4769 38.2023 33.4146 38.3938 33.2899C38.5853 33.163 38.73 32.9815 38.828 32.7455C38.9259 32.5073 38.9749 32.2223 38.9749 31.8905V31.64C38.9749 31.384 38.9471 31.158 38.8914 30.962C38.8358 30.7661 38.7534 30.6013 38.6443 30.4677C38.5374 30.3341 38.4049 30.2328 38.2468 30.1638C38.0887 30.0948 37.9073 30.0603 37.7024 30.0603H36.6137V29.3355H37.7024C38.0275 29.3355 38.3237 29.3901 38.5908 29.4992C38.8602 29.6083 39.0929 29.7652 39.2889 29.9701C39.487 30.1727 39.6384 30.4154 39.7431 30.6982C39.8499 30.9809 39.9034 31.2971 39.9034 31.6467V31.8905C39.9034 32.2378 39.8499 32.554 39.7431 32.839C39.6384 33.1218 39.487 33.3645 39.2889 33.5671C39.0929 33.7697 38.8591 33.9256 38.5875 34.0347C38.3159 34.1438 38.0142 34.1983 37.6824 34.1983ZM37.148 29.3355V34.1983H36.2296V29.3355H37.148Z" fill="#A2A7A9"/>
<path d="M43.2531 31.5732L44.1381 30.9921C44.2784 30.8986 44.3753 30.8084 44.4287 30.7216C44.4821 30.6347 44.5089 30.5301 44.5089 30.4076C44.5089 30.2985 44.4666 30.1972 44.3819 30.1037C44.2996 30.0079 44.1827 29.9601 44.0313 29.9601C43.9244 29.9601 43.8342 29.9846 43.7607 30.0335C43.6873 30.0825 43.6316 30.1482 43.5938 30.2306C43.5581 30.3108 43.5403 30.3998 43.5403 30.4978C43.5403 30.598 43.5659 30.7004 43.6171 30.805C43.6706 30.9097 43.7418 31.0199 43.8309 31.1357C43.9222 31.2492 44.0235 31.3728 44.1348 31.5064L46.4293 34.1983H45.4206L43.5437 32.0141C43.3856 31.8181 43.2453 31.6378 43.1228 31.473C43.0004 31.3083 42.9046 31.1491 42.8356 30.9954C42.7688 30.8396 42.7354 30.6792 42.7354 30.5145C42.7354 30.2607 42.7889 30.0402 42.8957 29.8532C43.0026 29.6662 43.1529 29.5214 43.3466 29.419C43.5425 29.3166 43.7719 29.2654 44.0346 29.2654C44.284 29.2654 44.4988 29.3166 44.6792 29.419C44.8618 29.5192 45.0032 29.6528 45.1033 29.8198C45.2035 29.9868 45.2536 30.1694 45.2536 30.3675C45.2536 30.5189 45.2258 30.6592 45.1701 30.7883C45.1145 30.9153 45.0377 31.0322 44.9397 31.139C44.8417 31.2437 44.7282 31.3428 44.599 31.4363L43.557 32.1844C43.4568 32.269 43.3811 32.3525 43.3299 32.4349C43.2809 32.515 43.2475 32.5896 43.2297 32.6587C43.2141 32.7277 43.2063 32.7923 43.2063 32.8524C43.2063 32.9882 43.2353 33.1107 43.2932 33.2198C43.3533 33.3266 43.4379 33.4124 43.547 33.4769C43.6583 33.5393 43.7897 33.5704 43.9411 33.5704C44.1259 33.5704 44.304 33.5292 44.4755 33.4469C44.6469 33.3645 44.8005 33.2476 44.9364 33.0962C45.0744 32.9448 45.1835 32.7644 45.2637 32.5551C45.346 32.3436 45.3872 32.1109 45.3872 31.8571H46.142C46.142 32.0998 46.1187 32.3302 46.0719 32.5484C46.0251 32.7644 45.9494 32.9648 45.8448 33.1496C45.7401 33.3344 45.6032 33.4992 45.434 33.6439C45.4184 33.6573 45.3995 33.6751 45.3772 33.6974C45.3572 33.7196 45.3394 33.7374 45.3238 33.7508C45.1212 33.9245 44.9018 34.0547 44.6658 34.1416C44.432 34.2262 44.1771 34.2685 43.901 34.2685C43.5759 34.2685 43.2954 34.2095 43.0594 34.0915C42.8234 33.9734 42.6408 33.8109 42.5117 33.6038C42.3847 33.3968 42.3213 33.1596 42.3213 32.8925C42.3213 32.6943 42.3602 32.5217 42.4382 32.3748C42.5183 32.2256 42.6285 32.0875 42.7688 31.9606C42.9091 31.8315 43.0705 31.7024 43.2531 31.5732Z" fill="#A2A7A9"/>
<path d="M49.2078 29.3355H50.0027L51.332 32.996L52.6579 29.3355H53.4561L51.6493 34.1983H51.0113L49.2078 29.3355ZM48.8071 29.3355H49.5852L49.7255 32.6987V34.1983H48.8071V29.3355ZM53.0754 29.3355H53.8569V34.1983H52.9384V32.6987L53.0754 29.3355Z" fill="#A2A7A9"/>
<path d="M58.7981 31.6433V31.8938C58.7981 32.2612 58.7491 32.5919 58.6511 32.8858C58.5531 33.1775 58.414 33.4257 58.2336 33.6306C58.0533 33.8354 57.8384 33.9924 57.5891 34.1015C57.3397 34.2106 57.0625 34.2651 56.7574 34.2651C56.4569 34.2651 56.1808 34.2106 55.9292 34.1015C55.6798 33.9924 55.4638 33.8354 55.2812 33.6306C55.0987 33.4257 54.9573 33.1775 54.8571 32.8858C54.7569 32.5919 54.7068 32.2612 54.7068 31.8938V31.6433C54.7068 31.2737 54.7569 30.9431 54.8571 30.6514C54.9573 30.3597 55.0975 30.1115 55.2779 29.9066C55.4582 29.6996 55.6731 29.5415 55.9225 29.4324C56.1741 29.3233 56.4502 29.2687 56.7508 29.2687C57.0558 29.2687 57.333 29.3233 57.5824 29.4324C57.8317 29.5415 58.0466 29.6996 58.227 29.9066C58.4095 30.1115 58.5498 30.3597 58.6478 30.6514C58.748 30.9431 58.7981 31.2737 58.7981 31.6433ZM57.8696 31.8938V31.6367C57.8696 31.3717 57.8451 31.139 57.7961 30.9386C57.7471 30.736 57.6748 30.5657 57.579 30.4276C57.4833 30.2896 57.3653 30.1861 57.225 30.117C57.0847 30.0458 56.9267 30.0102 56.7508 30.0102C56.5726 30.0102 56.4146 30.0458 56.2765 30.117C56.1407 30.1861 56.0249 30.2896 55.9292 30.4276C55.8334 30.5657 55.7599 30.736 55.7087 30.9386C55.6598 31.139 55.6353 31.3717 55.6353 31.6367V31.8938C55.6353 32.1566 55.6598 32.3892 55.7087 32.5919C55.7599 32.7945 55.8334 32.9659 55.9292 33.1062C56.0271 33.2442 56.1451 33.3489 56.2832 33.4201C56.4212 33.4914 56.5793 33.527 56.7574 33.527C56.9356 33.527 57.0936 33.4914 57.2317 33.4201C57.3697 33.3489 57.4855 33.2442 57.579 33.1062C57.6748 32.9659 57.7471 32.7945 57.7961 32.5919C57.8451 32.3892 57.8696 32.1566 57.8696 31.8938Z" fill="#A2A7A9"/>
<path d="M63.5522 29.3355V34.1983H62.6304L60.5631 30.8251V34.1983H59.6446V29.3355H60.5631L62.6371 32.7121V29.3355H63.5522Z" fill="#A2A7A9"/>
<path d="M65.5343 29.3355V34.1983H64.6159V29.3355H65.5343Z" fill="#A2A7A9"/>
<path d="M68.5819 29.3355V34.1983H67.6667V29.3355H68.5819ZM70.0915 29.3355V30.0603H66.1739V29.3355H70.0915Z" fill="#A2A7A9"/>
<path d="M74.6152 31.6433V31.8938C74.6152 32.2612 74.5662 32.5919 74.4682 32.8858C74.3703 33.1775 74.2311 33.4257 74.0507 33.6306C73.8704 33.8354 73.6555 33.9924 73.4062 34.1015C73.1568 34.2106 72.8796 34.2651 72.5745 34.2651C72.274 34.2651 71.9979 34.2106 71.7463 34.1015C71.4969 33.9924 71.2809 33.8354 71.0983 33.6306C70.9158 33.4257 70.7744 33.1775 70.6742 32.8858C70.574 32.5919 70.5239 32.2612 70.5239 31.8938V31.6433C70.5239 31.2737 70.574 30.9431 70.6742 30.6514C70.7744 30.3597 70.9147 30.1115 71.095 29.9066C71.2754 29.6996 71.4902 29.5415 71.7396 29.4324C71.9912 29.3233 72.2673 29.2687 72.5679 29.2687C72.8729 29.2687 73.1501 29.3233 73.3995 29.4324C73.6488 29.5415 73.8637 29.6996 74.0441 29.9066C74.2266 30.1115 74.3669 30.3597 74.4649 30.6514C74.5651 30.9431 74.6152 31.2737 74.6152 31.6433ZM73.6867 31.8938V31.6367C73.6867 31.3717 73.6622 31.139 73.6132 30.9386C73.5642 30.736 73.4919 30.5657 73.3961 30.4276C73.3004 30.2896 73.1824 30.1861 73.0421 30.117C72.9018 30.0458 72.7438 30.0102 72.5679 30.0102C72.3897 30.0102 72.2317 30.0458 72.0936 30.117C71.9578 30.1861 71.842 30.2896 71.7463 30.4276C71.6505 30.5657 71.577 30.736 71.5258 30.9386C71.4769 31.139 71.4524 31.3717 71.4524 31.6367V31.8938C71.4524 32.1566 71.4769 32.3892 71.5258 32.5919C71.577 32.7945 71.6505 32.9659 71.7463 33.1062C71.8442 33.2442 71.9622 33.3489 72.1003 33.4201C72.2383 33.4914 72.3964 33.527 72.5745 33.527C72.7527 33.527 72.9108 33.4914 73.0488 33.4201C73.1868 33.3489 73.3026 33.2442 73.3961 33.1062C73.4919 32.9659 73.5642 32.7945 73.6132 32.5919C73.6622 32.3892 73.6867 32.1566 73.6867 31.8938Z" fill="#A2A7A9"/>
<path d="M75.4618 29.3355H77.2285C77.5981 29.3355 77.9154 29.3912 78.1804 29.5025C78.4453 29.6138 78.649 29.7786 78.7915 29.9968C78.934 30.215 79.0053 30.4833 79.0053 30.8017C79.0053 31.0533 78.9608 31.2715 78.8717 31.4563C78.7826 31.6411 78.6568 31.7959 78.4943 31.9206C78.334 32.0452 78.1447 32.1432 77.9265 32.2145L77.6393 32.3614H76.0796L76.0729 31.6367H77.2385C77.4278 31.6367 77.5848 31.6033 77.7094 31.5365C77.8341 31.4697 77.9277 31.3773 77.99 31.2593C78.0546 31.1413 78.0868 31.0066 78.0868 30.8551C78.0868 30.6926 78.0557 30.5523 77.9933 30.4343C77.931 30.3141 77.8364 30.2217 77.7094 30.1571C77.5825 30.0925 77.4222 30.0603 77.2285 30.0603H76.3802V34.1983H75.4618V29.3355ZM78.2071 34.1983L77.0816 32.0208L78.0535 32.0174L79.1923 34.1516V34.1983H78.2071Z" fill="#A2A7A9"/>
<path d="M83.1015 33.4769V34.1983H80.5165V33.4769H83.1015ZM80.797 29.3355V34.1983H79.8786V29.3355H80.797ZM82.7642 31.3428V32.0475H80.5165V31.3428H82.7642ZM83.0915 29.3355V30.0603H80.5165V29.3355H83.0915Z" fill="#A2A7A9"/>
<path d="M85.2606 34.1983H84.2119L84.2186 33.4769H85.2606C85.5434 33.4769 85.7805 33.4146 85.972 33.2899C86.1635 33.163 86.3082 32.9815 86.4062 32.7455C86.5042 32.5073 86.5532 32.2223 86.5532 31.8905V31.64C86.5532 31.384 86.5253 31.158 86.4697 30.962C86.414 30.7661 86.3316 30.6013 86.2225 30.4677C86.1156 30.3341 85.9832 30.2328 85.8251 30.1638C85.667 30.0948 85.4855 30.0603 85.2807 30.0603H84.1919V29.3355H85.2807C85.6058 29.3355 85.9019 29.3901 86.1691 29.4992C86.4385 29.6083 86.6712 29.7652 86.8671 29.9701C87.0653 30.1727 87.2167 30.4154 87.3213 30.6982C87.4282 30.9809 87.4816 31.2971 87.4816 31.6467V31.8905C87.4816 32.2378 87.4282 32.554 87.3213 32.839C87.2167 33.1218 87.0653 33.3645 86.8671 33.5671C86.6712 33.7697 86.4374 33.9256 86.1657 34.0347C85.8941 34.1438 85.5924 34.1983 85.2606 34.1983ZM84.7263 29.3355V34.1983H83.8078V29.3355H84.7263Z" fill="#A2A7A9"/>
</svg>
