<svg width="90" height="36" viewBox="0 0 90 36" fill="none" xmlns="http://www.w3.org/2000/svg">
<path d="M69.4844 18.9431V13.615C69.4844 9.53487 72.792 6.22729 76.8721 6.22729V6.22729C80.9522 6.22729 84.2598 9.53488 84.2598 13.615V18.9431" stroke="#A2A7A9" stroke-width="1.81589"/>
<path d="M6.1447 6.3206C6.1194 6.00434 6.00081 5.75765 5.78891 5.58055C5.58018 5.40344 5.26234 5.31489 4.83539 5.31489C4.5634 5.31489 4.34044 5.3481 4.1665 5.41451C3.99572 5.47777 3.86922 5.56474 3.78699 5.67543C3.70476 5.78612 3.66207 5.91262 3.6589 6.05494C3.65258 6.17195 3.67313 6.2779 3.72057 6.37278C3.77117 6.4645 3.85024 6.5483 3.95777 6.62421C4.0653 6.69695 4.20287 6.76336 4.37049 6.82345C4.5381 6.88354 4.73735 6.9373 4.96822 6.98474L5.76519 7.15552C6.30283 7.26938 6.76299 7.4196 7.14566 7.60619C7.52834 7.79279 7.84144 8.01259 8.08496 8.26559C8.32848 8.51544 8.50716 8.79691 8.62102 9.11001C8.73803 9.4231 8.79812 9.76466 8.80128 10.1347C8.79812 10.7735 8.63841 11.3143 8.32215 11.7571C8.00589 12.1999 7.55364 12.5367 6.9654 12.7675C6.38032 12.9984 5.67664 13.1139 4.85436 13.1139C4.00995 13.1139 3.27307 12.9889 2.64371 12.7391C2.01752 12.4892 1.53048 12.105 1.18259 11.5863C0.837867 11.0645 0.663924 10.3972 0.660762 9.5844H3.16554C3.18135 9.88168 3.25567 10.1315 3.3885 10.3339C3.52133 10.5363 3.70792 10.6897 3.94828 10.7941C4.1918 10.8985 4.48118 10.9506 4.81641 10.9506C5.09788 10.9506 5.3335 10.9158 5.52325 10.8463C5.71301 10.7767 5.85691 10.6802 5.95495 10.5569C6.05299 10.4336 6.10359 10.2928 6.10675 10.1347C6.10359 9.98605 6.05457 9.85638 5.95969 9.74569C5.86798 9.63184 5.71617 9.53063 5.50428 9.44208C5.29238 9.35036 5.00617 9.26497 4.64563 9.18591L3.67788 8.97718C2.81765 8.79058 2.13928 8.47907 1.64275 8.04263C1.14938 7.60303 0.904281 7.00372 0.907444 6.24469C0.904281 5.62799 1.06874 5.08877 1.40081 4.62703C1.73604 4.16213 2.19936 3.80001 2.79077 3.54067C3.38534 3.28134 4.06688 3.15168 4.83539 3.15168C5.61971 3.15168 6.29809 3.28292 6.87052 3.54542C7.44295 3.80791 7.88413 4.17794 8.19407 4.65549C8.50716 5.12988 8.66529 5.68492 8.66846 6.3206H6.1447ZM15.0419 6.3206C15.0166 6.00434 14.898 5.75765 14.6861 5.58055C14.4774 5.40344 14.1595 5.31489 13.7326 5.31489C13.4606 5.31489 13.2376 5.3481 13.0637 5.41451C12.8929 5.47777 12.7664 5.56474 12.6842 5.67543C12.6019 5.78612 12.5592 5.91262 12.5561 6.05494C12.5498 6.17195 12.5703 6.2779 12.6177 6.37278C12.6683 6.4645 12.7474 6.5483 12.8549 6.62421C12.9625 6.69695 13.1 6.76336 13.2677 6.82345C13.4353 6.88354 13.6345 6.9373 13.8654 6.98474L14.6624 7.15552C15.2 7.26938 15.6602 7.4196 16.0428 7.60619C16.4255 7.79279 16.7386 8.01259 16.9821 8.26559C17.2256 8.51544 17.4043 8.79691 17.5182 9.11001C17.6352 9.4231 17.6953 9.76466 17.6985 10.1347C17.6953 10.7735 17.5356 11.3143 17.2193 11.7571C16.9031 12.1999 16.4508 12.5367 15.8626 12.7675C15.2775 12.9984 14.5738 13.1139 13.7515 13.1139C12.9071 13.1139 12.1702 12.9889 11.5409 12.7391C10.9147 12.4892 10.4276 12.105 10.0798 11.5863C9.73504 11.0645 9.5611 10.3972 9.55793 9.5844H12.0627C12.0785 9.88168 12.1528 10.1315 12.2857 10.3339C12.4185 10.5363 12.6051 10.6897 12.8455 10.7941C13.089 10.8985 13.3784 10.9506 13.7136 10.9506C13.9951 10.9506 14.2307 10.9158 14.4204 10.8463C14.6102 10.7767 14.7541 10.6802 14.8521 10.5569C14.9502 10.4336 15.0008 10.2928 15.0039 10.1347C15.0008 9.98605 14.9517 9.85638 14.8569 9.74569C14.7651 9.63184 14.6133 9.53063 14.4015 9.44208C14.1896 9.35036 13.9033 9.26497 13.5428 9.18591L12.5751 8.97718C11.7148 8.79058 11.0364 8.47907 10.5399 8.04263C10.0466 7.60303 9.80145 7.00372 9.80462 6.24469C9.80145 5.62799 9.96591 5.08877 10.298 4.62703C10.6332 4.16213 11.0965 3.80001 11.6879 3.54067C12.2825 3.28134 12.9641 3.15168 13.7326 3.15168C14.5169 3.15168 15.1953 3.28292 15.7677 3.54542C16.3401 3.80791 16.7813 4.17794 17.0912 4.65549C17.4043 5.12988 17.5625 5.68492 17.5656 6.3206H15.0419ZM18.7018 13V3.2845H21.3394V10.8747H25.2673V13H18.7018Z" fill="#A2A7A9"/>
<path d="M4.71479 18.02C4.69566 17.7809 4.60599 17.5944 4.44577 17.4605C4.28794 17.3266 4.04761 17.2596 3.72478 17.2596C3.51912 17.2596 3.35053 17.2847 3.21901 17.3349C3.08988 17.3828 2.99422 17.4485 2.93205 17.5322C2.86987 17.6159 2.83759 17.7116 2.8352 17.8192C2.83042 17.9077 2.84596 17.9878 2.88183 18.0595C2.92009 18.1289 2.97988 18.1922 3.06118 18.2496C3.14249 18.3046 3.24651 18.3548 3.37325 18.4003C3.49999 18.4457 3.65065 18.4864 3.82521 18.5222L4.42783 18.6514C4.83436 18.7375 5.1823 18.851 5.47165 18.9921C5.761 19.1332 5.99774 19.2994 6.18188 19.4907C6.36601 19.6796 6.50112 19.8925 6.58721 20.1292C6.67569 20.366 6.72113 20.6242 6.72352 20.904C6.72113 21.3871 6.60036 21.796 6.36123 22.1308C6.12209 22.4655 5.78013 22.7202 5.33534 22.8948C4.89295 23.0694 4.36087 23.1566 3.73913 23.1566C3.10064 23.1566 2.54346 23.0622 2.06758 22.8733C1.59409 22.6844 1.22583 22.3938 0.962782 22.0016C0.702126 21.6071 0.570602 21.1025 0.568211 20.4879H2.46215C2.47411 20.7127 2.5303 20.9016 2.63074 21.0547C2.73118 21.2077 2.87227 21.3237 3.05401 21.4026C3.23814 21.4815 3.45695 21.521 3.71043 21.521C3.92326 21.521 4.10141 21.4947 4.24489 21.4421C4.38837 21.3894 4.49718 21.3165 4.57131 21.2232C4.64544 21.13 4.6837 21.0236 4.6861 20.904C4.6837 20.7916 4.64664 20.6936 4.5749 20.6099C4.50555 20.5238 4.39077 20.4473 4.23055 20.3803C4.07033 20.311 3.85391 20.2464 3.5813 20.1866L2.84955 20.0288C2.1991 19.8877 1.68616 19.6521 1.31072 19.3221C0.937672 18.9897 0.752344 18.5366 0.754735 17.9627C0.752344 17.4963 0.876693 17.0886 1.12778 16.7395C1.38127 16.388 1.7316 16.1142 2.17878 15.9181C2.62835 15.722 3.14368 15.6239 3.72478 15.6239C4.31783 15.6239 4.83077 15.7232 5.2636 15.9216C5.69644 16.1201 6.03003 16.3999 6.26438 16.761C6.50112 17.1197 6.62069 17.5394 6.62308 18.02H4.71479ZM10.1509 23.171C9.56263 23.171 9.05567 23.0586 8.63001 22.8338C8.20674 22.6066 7.88033 22.2814 7.65076 21.8581C7.42358 21.4325 7.30999 20.9231 7.30999 20.3301C7.30999 19.7609 7.42478 19.2635 7.65434 18.8379C7.88391 18.4122 8.20794 18.081 8.62642 17.8443C9.04491 17.6075 9.53872 17.4892 10.1079 17.4892C10.524 17.4892 10.9006 17.5537 11.2378 17.6829C11.5749 17.812 11.8631 17.9997 12.1022 18.246C12.3414 18.4899 12.5255 18.7865 12.6546 19.1356C12.7838 19.4847 12.8483 19.8781 12.8483 20.3157V20.7749H7.92696V19.6844H11.0261C11.0237 19.5266 10.9831 19.3879 10.9042 19.2683C10.8277 19.1464 10.7236 19.0519 10.5921 18.985C10.463 18.9156 10.3159 18.8809 10.1509 18.8809C9.99068 18.8809 9.84362 18.9156 9.7097 18.985C9.57579 19.0519 9.46818 19.1452 9.38687 19.2647C9.30796 19.3843 9.26611 19.5242 9.26132 19.6844V20.861C9.26132 21.0379 9.29839 21.1957 9.37252 21.3344C9.44665 21.4731 9.55307 21.5819 9.69177 21.6609C9.83046 21.7398 9.99786 21.7792 10.1939 21.7792C10.3303 21.7792 10.4546 21.7601 10.567 21.7218C10.6818 21.6836 10.7798 21.6286 10.8611 21.5568C10.9424 21.4827 11.0022 21.3942 11.0405 21.2914H12.8483C12.7862 21.674 12.6391 22.0064 12.4071 22.2886C12.1752 22.5684 11.8679 22.786 11.4853 22.9414C11.105 23.0945 10.6603 23.171 10.1509 23.171ZM16.3107 23.171C15.7129 23.171 15.2011 23.0526 14.7755 22.8159C14.3498 22.5767 14.0234 22.2443 13.7962 21.8187C13.569 21.3906 13.4554 20.8944 13.4554 20.3301C13.4554 19.7657 13.569 19.2707 13.7962 18.8451C14.0234 18.417 14.3498 18.0846 14.7755 17.8479C15.2011 17.6087 15.7129 17.4892 16.3107 17.4892C16.8511 17.4892 17.3186 17.5872 17.7132 17.7833C18.1102 17.977 18.4175 18.252 18.6351 18.6083C18.8527 18.9622 18.9627 19.3783 18.9651 19.8566H17.1285C17.1022 19.5672 17.0185 19.3472 16.8774 19.1966C16.7387 19.0435 16.5594 18.967 16.3394 18.967C16.1672 18.967 16.0166 19.0172 15.8874 19.1177C15.7583 19.2157 15.6579 19.3652 15.5861 19.566C15.5144 19.7645 15.4785 20.0144 15.4785 20.3157C15.4785 20.617 15.5144 20.8681 15.5861 21.069C15.6579 21.2675 15.7583 21.4169 15.8874 21.5174C16.0166 21.6154 16.1672 21.6644 16.3394 21.6644C16.4853 21.6644 16.6144 21.631 16.7268 21.564C16.8392 21.4947 16.93 21.3942 16.9994 21.2627C17.0711 21.1288 17.1142 20.9662 17.1285 20.7749H18.9651C18.9579 21.2603 18.8467 21.6836 18.6315 22.0447C18.4163 22.4034 18.1114 22.6808 17.7168 22.8769C17.3246 23.0729 16.8559 23.171 16.3107 23.171ZM23.3547 20.6601V17.5609H25.3347V23.0706H23.4551V22.0232H23.3977C23.2782 22.3747 23.0689 22.6497 22.77 22.8482C22.4711 23.0443 22.116 23.1423 21.7047 23.1423C21.3196 23.1423 20.9825 23.0538 20.6931 22.8769C20.4062 22.6999 20.1826 22.456 20.0223 22.1451C19.8645 21.8342 19.7844 21.4779 19.782 21.0762V17.5609H21.762V20.6601C21.7644 20.9327 21.8338 21.1467 21.9701 21.3022C22.1088 21.4576 22.3025 21.5353 22.5512 21.5353C22.7162 21.5353 22.8585 21.5006 22.978 21.4313C23.1 21.3596 23.1933 21.2591 23.2578 21.13C23.3248 20.9985 23.3571 20.8418 23.3547 20.6601ZM26.3418 23.0706V17.5609H28.2644V18.6083H28.3218C28.4222 18.2209 28.5812 17.9375 28.7989 17.7582C29.0189 17.5788 29.2759 17.4892 29.5701 17.4892C29.6562 17.4892 29.741 17.4963 29.8247 17.5107C29.9108 17.5227 29.9933 17.5406 30.0722 17.5645V19.254C29.9742 19.2205 29.8534 19.1954 29.71 19.1787C29.5665 19.1619 29.4433 19.1535 29.3405 19.1535C29.1468 19.1535 28.9722 19.1978 28.8168 19.2863C28.6637 19.3724 28.543 19.4943 28.4545 19.6521C28.366 19.8076 28.3218 19.9905 28.3218 20.201V23.0706H26.3418ZM33.0459 23.171C32.4576 23.171 31.9506 23.0586 31.525 22.8338C31.1017 22.6066 30.7753 22.2814 30.5457 21.8581C30.3186 21.4325 30.205 20.9231 30.205 20.3301C30.205 19.7609 30.3198 19.2635 30.5493 18.8379C30.7789 18.4122 31.1029 18.081 31.5214 17.8443C31.9399 17.6075 32.4337 17.4892 33.0028 17.4892C33.4189 17.4892 33.7956 17.5537 34.1327 17.6829C34.4699 17.812 34.7581 17.9997 34.9972 18.246C35.2363 18.4899 35.4205 18.7865 35.5496 19.1356C35.6787 19.4847 35.7433 19.8781 35.7433 20.3157V20.7749H30.8219V19.6844H33.9211C33.9187 19.5266 33.8781 19.3879 33.7991 19.2683C33.7226 19.1464 33.6186 19.0519 33.4871 18.985C33.3579 18.9156 33.2109 18.8809 33.0459 18.8809C32.8857 18.8809 32.7386 18.9156 32.6047 18.985C32.4708 19.0519 32.3631 19.1452 32.2818 19.2647C32.2029 19.3843 32.1611 19.5242 32.1563 19.6844V20.861C32.1563 21.0379 32.1934 21.1957 32.2675 21.3344C32.3416 21.4731 32.448 21.5819 32.5867 21.6609C32.7254 21.7398 32.8928 21.7792 33.0889 21.7792C33.2252 21.7792 33.3496 21.7601 33.462 21.7218C33.5768 21.6836 33.6748 21.6286 33.7561 21.5568C33.8374 21.4827 33.8972 21.3942 33.9355 21.2914H35.7433C35.6811 21.674 35.5341 22.0064 35.3021 22.2886C35.0701 22.5684 34.7629 22.786 34.3802 22.9414C34 23.0945 33.5552 23.171 33.0459 23.171Z" fill="#A2A7A9"/>
<path d="M7.61309 28.8054H5.59002C5.57567 28.638 5.53741 28.4861 5.47524 28.3498C5.41545 28.2135 5.33176 28.0963 5.22415 27.9983C5.11893 27.8978 4.99099 27.8213 4.84034 27.7687C4.68968 27.7137 4.5187 27.6862 4.32739 27.6862C3.99261 27.6862 3.70923 27.7675 3.47727 27.9301C3.24771 28.0927 3.07314 28.3259 2.95357 28.6296C2.8364 28.9333 2.77781 29.298 2.77781 29.7236C2.77781 30.1732 2.83759 30.5498 2.95716 30.8535C3.07912 31.1548 3.25488 31.382 3.48445 31.5351C3.71402 31.6857 3.99022 31.7611 4.31305 31.7611C4.49718 31.7611 4.66218 31.7383 4.80805 31.6929C4.95393 31.6451 5.08067 31.5769 5.18828 31.4884C5.29589 31.4 5.38317 31.2935 5.45013 31.1692C5.51948 31.0425 5.56611 30.9002 5.59002 30.7423L7.61309 30.7567C7.58918 31.0676 7.5019 31.3844 7.35124 31.7072C7.20059 32.0277 6.98656 32.3242 6.70917 32.5968C6.43416 32.867 6.0934 33.0847 5.68687 33.2497C5.28034 33.4147 4.80805 33.4972 4.27 33.4972C3.59565 33.4972 2.99064 33.3525 2.45498 33.0631C1.92171 32.7738 1.49964 32.3481 1.18876 31.7862C0.88028 31.2242 0.726039 30.5367 0.726039 29.7236C0.726039 28.9058 0.883867 28.2171 1.19952 27.6575C1.51518 27.0956 1.94084 26.6711 2.4765 26.3841C3.01216 26.0948 3.60999 25.9501 4.27 25.9501C4.73392 25.9501 5.16078 26.0135 5.55056 26.1402C5.94035 26.267 6.28231 26.4523 6.57645 26.6962C6.87058 26.9377 7.10733 27.2354 7.28668 27.5894C7.46603 27.9433 7.57483 28.3486 7.61309 28.8054ZM11.201 33.4972C10.6032 33.4972 10.0914 33.3788 9.66576 33.1421C9.2401 32.9029 8.91368 32.5705 8.68651 32.1449C8.45933 31.7168 8.34574 31.2206 8.34574 30.6563C8.34574 30.0919 8.45933 29.5969 8.68651 29.1712C8.91368 28.7432 9.2401 28.4108 9.66576 28.174C10.0914 27.9349 10.6032 27.8153 11.201 27.8153C11.7988 27.8153 12.3106 27.9349 12.7362 28.174C13.1619 28.4108 13.4883 28.7432 13.7155 29.1712C13.9427 29.5969 14.0563 30.0919 14.0563 30.6563C14.0563 31.2206 13.9427 31.7168 13.7155 32.1449C13.4883 32.5705 13.1619 32.9029 12.7362 33.1421C12.3106 33.3788 11.7988 33.4972 11.201 33.4972ZM11.2153 32.0337C11.3827 32.0337 11.5274 31.9775 11.6494 31.8651C11.7713 31.7527 11.8658 31.5925 11.9327 31.3844C11.9997 31.1764 12.0332 30.9289 12.0332 30.6419C12.0332 30.3526 11.9997 30.1051 11.9327 29.8994C11.8658 29.6913 11.7713 29.5311 11.6494 29.4187C11.5274 29.3063 11.3827 29.2501 11.2153 29.2501C11.0384 29.2501 10.8865 29.3063 10.7598 29.4187C10.6331 29.5311 10.5362 29.6913 10.4692 29.8994C10.4023 30.1051 10.3688 30.3526 10.3688 30.6419C10.3688 30.9289 10.4023 31.1764 10.4692 31.3844C10.5362 31.5925 10.6331 31.7527 10.7598 31.8651C10.8865 31.9775 11.0384 32.0337 11.2153 32.0337ZM16.8398 30.2976V33.3967H14.8597V27.8871H16.7393V28.9345H16.7967C16.9163 28.5854 17.1267 28.3115 17.428 28.1131C17.7317 27.9146 18.0857 27.8153 18.4898 27.8153C18.8796 27.8153 19.218 27.905 19.5049 28.0844C19.7943 28.2613 20.0179 28.5052 20.1757 28.8161C20.3359 29.127 20.4148 29.4821 20.4124 29.8815V33.3967H18.4324V30.2976C18.4348 30.0249 18.3654 29.8109 18.2244 29.6555C18.0857 29.5 17.892 29.4223 17.6433 29.4223C17.4807 29.4223 17.3384 29.4582 17.2164 29.5299C17.0968 29.5993 17.0048 29.6997 16.9402 29.8312C16.8756 29.9604 16.8422 30.1158 16.8398 30.2976ZM23.3699 30.2976V33.3967H21.3899V27.8871H23.2695V28.9345H23.3269C23.4464 28.5854 23.6569 28.3115 23.9582 28.1131C24.2619 27.9146 24.6158 27.8153 25.0199 27.8153C25.4097 27.8153 25.7481 27.905 26.0351 28.0844C26.3244 28.2613 26.548 28.5052 26.7058 28.8161C26.8661 29.127 26.945 29.4821 26.9426 29.8815V33.3967H24.9626V30.2976C24.9649 30.0249 24.8956 29.8109 24.7545 29.6555C24.6158 29.5 24.4221 29.4223 24.1734 29.4223C24.0108 29.4223 23.8685 29.4582 23.7466 29.5299C23.627 29.5993 23.5349 29.6997 23.4704 29.8312C23.4058 29.9604 23.3723 30.1158 23.3699 30.2976ZM30.5601 33.4972C29.9718 33.4972 29.4648 33.3848 29.0392 33.16C28.6159 32.9328 28.2895 32.6076 28.0599 32.1843C27.8328 31.7587 27.7192 31.2493 27.7192 30.6563C27.7192 30.0871 27.834 29.5897 28.0635 29.1641C28.2931 28.7384 28.6171 28.4072 29.0356 28.1705C29.4541 27.9337 29.9479 27.8153 30.517 27.8153C30.9331 27.8153 31.3098 27.8799 31.6469 28.009C31.9841 28.1382 32.2723 28.3259 32.5114 28.5722C32.7505 28.8161 32.9347 29.1126 33.0638 29.4618C33.1929 29.8109 33.2575 30.2043 33.2575 30.6419V31.101H28.3361V30.0106H31.4353C31.4329 29.8528 31.3923 29.7141 31.3134 29.5945C31.2368 29.4725 31.1328 29.3781 31.0013 29.3111C30.8722 29.2418 30.7251 29.2071 30.5601 29.2071C30.3999 29.2071 30.2528 29.2418 30.1189 29.3111C29.985 29.3781 29.8774 29.4713 29.796 29.5909C29.7171 29.7105 29.6753 29.8504 29.6705 30.0106V31.1871C29.6705 31.3641 29.7076 31.5219 29.7817 31.6606C29.8558 31.7993 29.9622 31.9081 30.1009 31.987C30.2396 32.0659 30.407 32.1054 30.6031 32.1054C30.7394 32.1054 30.8638 32.0863 30.9762 32.048C31.091 32.0098 31.189 31.9548 31.2703 31.883C31.3516 31.8089 31.4114 31.7204 31.4497 31.6176H33.2575C33.1953 32.0002 33.0483 32.3326 32.8163 32.6148C32.5843 32.8945 32.2771 33.1122 31.8944 33.2676C31.5142 33.4206 31.0694 33.4972 30.5601 33.4972ZM36.7199 33.4972C36.122 33.4972 35.6103 33.3788 35.1846 33.1421C34.759 32.9029 34.4326 32.5705 34.2054 32.1449C33.9782 31.7168 33.8646 31.2206 33.8646 30.6563C33.8646 30.0919 33.9782 29.5969 34.2054 29.1712C34.4326 28.7432 34.759 28.4108 35.1846 28.174C35.6103 27.9349 36.122 27.8153 36.7199 27.8153C37.2603 27.8153 37.7278 27.9134 38.1224 28.1095C38.5194 28.3032 38.8266 28.5782 39.0442 28.9345C39.2619 29.2884 39.3719 29.7045 39.3743 30.1828H37.5377C37.5114 29.8934 37.4277 29.6734 37.2866 29.5228C37.1479 29.3697 36.9686 29.2932 36.7486 29.2932C36.5764 29.2932 36.4257 29.3434 36.2966 29.4438C36.1675 29.5419 36.067 29.6913 35.9953 29.8922C35.9236 30.0907 35.8877 30.3406 35.8877 30.6419C35.8877 30.9432 35.9236 31.1943 35.9953 31.3952C36.067 31.5937 36.1675 31.7431 36.2966 31.8436C36.4257 31.9416 36.5764 31.9906 36.7486 31.9906C36.8944 31.9906 37.0236 31.9571 37.136 31.8902C37.2484 31.8208 37.3392 31.7204 37.4086 31.5889C37.4803 31.455 37.5234 31.2924 37.5377 31.101H39.3743C39.3671 31.5865 39.2559 32.0098 39.0407 32.3708C38.8254 32.7295 38.5205 33.0069 38.126 33.203C37.7338 33.3991 37.2651 33.4972 36.7199 33.4972ZM43.4769 27.8871V29.3219H39.8468V27.8871H43.4769ZM40.5499 26.5671H42.5299V31.6247C42.5299 31.7013 42.5431 31.7658 42.5694 31.8184C42.5957 31.8687 42.6363 31.9069 42.6913 31.9332C42.7463 31.9571 42.8169 31.9691 42.903 31.9691C42.9628 31.9691 43.0321 31.9619 43.111 31.9476C43.1923 31.9332 43.2521 31.9213 43.2904 31.9117L43.5773 33.3035C43.4889 33.3298 43.3621 33.3621 43.1971 33.4003C43.0345 33.4386 42.8408 33.4637 42.616 33.4756C42.1617 33.4996 41.7802 33.4529 41.4718 33.3357C41.1633 33.2162 40.9313 33.0285 40.7759 32.7726C40.6204 32.5167 40.5451 32.1963 40.5499 31.8113V26.5671ZM44.2849 33.3967V27.8871H46.2649V33.3967H44.2849ZM45.2749 27.3132C45.0071 27.3132 44.7775 27.2247 44.5862 27.0477C44.3949 26.8708 44.2992 26.6579 44.2992 26.4092C44.2992 26.1605 44.3949 25.9477 44.5862 25.7707C44.7775 25.5938 45.0071 25.5053 45.2749 25.5053C45.5451 25.5053 45.7747 25.5938 45.9636 25.7707C46.1549 25.9477 46.2505 26.1605 46.2505 26.4092C46.2505 26.6579 46.1549 26.8708 45.9636 27.0477C45.7747 27.2247 45.5451 27.3132 45.2749 27.3132ZM49.9281 33.4972C49.3303 33.4972 48.8185 33.3788 48.3929 33.1421C47.9672 32.9029 47.6408 32.5705 47.4136 32.1449C47.1865 31.7168 47.0729 31.2206 47.0729 30.6563C47.0729 30.0919 47.1865 29.5969 47.4136 29.1712C47.6408 28.7432 47.9672 28.4108 48.3929 28.174C48.8185 27.9349 49.3303 27.8153 49.9281 27.8153C50.526 27.8153 51.0377 27.9349 51.4634 28.174C51.889 28.4108 52.2154 28.7432 52.4426 29.1712C52.6698 29.5969 52.7834 30.0919 52.7834 30.6563C52.7834 31.2206 52.6698 31.7168 52.4426 32.1449C52.2154 32.5705 51.889 32.9029 51.4634 33.1421C51.0377 33.3788 50.526 33.4972 49.9281 33.4972ZM49.9425 32.0337C50.1099 32.0337 50.2545 31.9775 50.3765 31.8651C50.4985 31.7527 50.5929 31.5925 50.6599 31.3844C50.7268 31.1764 50.7603 30.9289 50.7603 30.6419C50.7603 30.3526 50.7268 30.1051 50.6599 29.8994C50.5929 29.6913 50.4985 29.5311 50.3765 29.4187C50.2545 29.3063 50.1099 29.2501 49.9425 29.2501C49.7655 29.2501 49.6137 29.3063 49.4869 29.4187C49.3602 29.5311 49.2633 29.6913 49.1964 29.8994C49.1294 30.1051 49.0959 30.3526 49.0959 30.6419C49.0959 30.9289 49.1294 31.1764 49.1964 31.3844C49.2633 31.5925 49.3602 31.7527 49.4869 31.8651C49.6137 31.9775 49.7655 32.0337 49.9425 32.0337ZM55.5669 30.2976V33.3967H53.5869V27.8871H55.4665V28.9345H55.5239C55.6434 28.5854 55.8539 28.3115 56.1552 28.1131C56.4589 27.9146 56.8128 27.8153 57.2169 27.8153C57.6067 27.8153 57.9451 27.905 58.2321 28.0844C58.5214 28.2613 58.745 28.5052 58.9028 28.8161C59.063 29.127 59.142 29.4821 59.1396 29.8815V33.3967H57.1595V30.2976C57.1619 30.0249 57.0926 29.8109 56.9515 29.6555C56.8128 29.5 56.6191 29.4223 56.3704 29.4223C56.2078 29.4223 56.0655 29.4582 55.9435 29.5299C55.824 29.5993 55.7319 29.6997 55.6673 29.8312C55.6028 29.9604 55.5693 30.1158 55.5669 30.2976Z" fill="#A2A7A9"/>
<path fill-rule="evenodd" clip-rule="evenodd" d="M85.9767 17.5547H67.1562V33.2072H85.9767V28.9491L82.4191 32.5068L77.5835 27.6712V21.761L82.4191 26.4175L85.9767 22.8599V17.5547Z" fill="#A2A7A9"/>
</svg>
