<svg width="172" height="64" viewBox="0 0 172 64" fill="none" xmlns="http://www.w3.org/2000/svg">
<path d="M20.1129 49.9638C18.5655 49.1089 16.8892 48.512 15.1498 48.1965V62.9497H9.73006V48.2263C8.00093 48.5213 6.33745 49.1196 4.81647 49.9936L3 46.1017C4.39299 45.2827 5.89295 44.6613 7.4569 44.2551C10.7383 43.4342 14.1713 43.4342 17.4526 44.2551C19.0122 44.6462 20.5069 45.2615 21.8898 46.0818L20.1129 49.9638Z" fill="white"/>
<path d="M31.5068 58.9737C32.0837 58.7372 32.6146 58.4012 33.0752 57.9809L35.8049 60.7807C34.3954 62.3791 32.2909 63.1634 29.4818 63.1634C27.9004 63.1889 26.3345 62.8491 24.9058 62.1706C23.9827 61.7161 23.164 61.0748 22.5015 60.2874C21.839 59.5001 21.3471 58.5838 21.0569 57.5964C20.7667 56.6091 20.6846 55.5723 20.8158 54.5516C20.9469 53.5309 21.2884 52.5485 21.8187 51.6666C22.5349 50.5044 23.568 49.571 24.7966 48.9761C26.1002 48.314 27.5433 47.9736 29.0053 47.9833C30.3779 47.9591 31.7373 48.2548 32.9758 48.847C34.1632 49.4095 35.1603 50.3067 35.8446 51.4283C36.5627 52.6268 36.9307 54.0026 36.9067 55.3996L26.2955 57.3852C26.6119 57.9856 27.1029 58.4759 27.7037 58.7914C28.3045 59.1069 28.9867 59.2328 29.6605 59.1524C30.2815 59.2316 30.9124 59.1705 31.5068 58.9737ZM26.8514 52.5204C26.2349 53.155 25.8805 53.9988 25.8588 54.8833L31.8939 53.7019C31.7277 53.1135 31.3804 52.5924 30.9013 52.2127C30.291 51.8033 29.5608 51.611 28.8281 51.6668C28.0953 51.7227 27.4026 52.0233 26.8613 52.5204H26.8514Z" fill="white"/>
<path d="M53.4547 49.6637C54.0554 50.3229 54.515 51.0982 54.8051 51.9416C55.0953 52.785 55.2101 53.6789 55.1422 54.5682V62.9574H49.921V55.4121C49.921 53.4265 49.107 52.4337 47.479 52.4337C47.0765 52.413 46.6744 52.4805 46.3007 52.6314C45.9269 52.7823 45.5906 53.013 45.3152 53.3073C44.7266 54.0413 44.436 54.9699 44.5012 55.9085V62.9773H39.28V48.3135H44.2432V49.9119C44.8386 49.324 45.5434 48.8586 46.3177 48.5419C47.1601 48.2185 48.0559 48.0567 48.9582 48.0653C49.7764 48.0177 50.5958 48.1347 51.3681 48.4092C52.1405 48.6837 52.85 49.1103 53.4547 49.6637Z" fill="white"/>
<path d="M61.7919 62.216C60.5536 61.6059 59.5123 60.6594 58.7872 59.4846C58.0621 58.3099 57.6827 56.9546 57.6923 55.5741C57.6739 54.1973 58.0567 52.845 58.7941 51.6822C59.5133 50.5225 60.5456 49.5899 61.772 48.9918C63.1267 48.364 64.6018 48.0388 66.0949 48.0388C67.5879 48.0388 69.0632 48.364 70.4179 48.9918C71.6415 49.5939 72.6729 50.5256 73.3958 51.6822C74.1109 52.8528 74.4792 54.2024 74.4578 55.5741C74.4869 56.9548 74.1188 58.3148 73.3973 59.4923C72.6758 60.6698 71.6313 61.6152 70.3881 62.216C69.0471 62.8827 67.5676 63.2229 66.0701 63.2088C64.5855 63.2219 63.119 62.8816 61.7919 62.216ZM68.3333 58.1852C68.9538 57.4739 69.2679 56.546 69.2068 55.6039C69.2374 55.142 69.1761 54.6784 69.0261 54.2404C68.8762 53.8024 68.6406 53.3985 68.3333 53.0523C67.7365 52.4606 66.9302 52.1286 66.0899 52.1286C65.2496 52.1286 64.4434 52.4606 63.8467 53.0523C63.5393 53.3985 63.3038 53.8024 63.1538 54.2404C63.0039 54.6784 62.9425 55.142 62.9731 55.6039C62.9121 56.546 63.2261 57.4739 63.8467 58.1852C64.4434 58.7769 65.2496 59.1089 66.0899 59.1089C66.9302 59.1089 67.7365 58.7769 68.3333 58.1852Z" fill="white"/>
<path d="M83.9397 48.53C84.8911 48.1739 85.9023 48.0053 86.9176 48.0336V52.65C86.4312 52.65 86.0441 52.5707 85.7363 52.5707C85.2507 52.5156 84.7589 52.5716 84.298 52.7345C83.8372 52.8974 83.4194 53.1629 83.0762 53.511C82.7329 53.8591 82.4733 54.2806 82.3168 54.7438C82.1603 55.2069 82.1111 55.6996 82.1728 56.1845V62.9158H76.9417V48.2818H81.9048V50.0489C82.4399 49.3746 83.1412 48.8513 83.9397 48.53Z" fill="white"/>
<path d="M90.7679 62.7907C89.7236 62.5873 88.7183 62.2187 87.79 61.6986L89.3683 58.1939C90.1161 58.6476 90.9298 58.9826 91.7803 59.1867C92.6871 59.4275 93.6216 59.5476 94.5597 59.5441C95.1691 59.5813 95.7799 59.497 96.3564 59.2959C96.5126 59.2407 96.6479 59.1386 96.7438 59.0035C96.8398 58.8684 96.8916 58.7071 96.8924 58.5414C96.8924 58.2038 96.6641 57.9755 96.2471 57.8365C95.5714 57.6605 94.8851 57.5278 94.1925 57.4394C93.1878 57.3256 92.1926 57.1397 91.2146 56.8834C90.3911 56.6538 89.6439 56.2082 89.0506 55.5928C88.7332 55.2304 88.4908 54.8086 88.3375 54.3519C88.1841 53.8952 88.1229 53.4125 88.1573 52.932C88.1445 52.0308 88.4385 51.152 88.9911 50.44C89.6444 49.6475 90.4978 49.0442 91.4627 48.6927C92.7136 48.2453 94.0357 48.0299 95.3638 48.0572C96.4409 48.0566 97.5153 48.1665 98.57 48.3849C99.4972 48.5659 100.393 48.8801 101.23 49.3181L99.6619 52.8228C98.358 52.0932 96.8875 51.7135 95.3935 51.7208C94.771 51.6837 94.148 51.782 93.5671 52.0087C93.4061 52.0629 93.2646 52.1634 93.1604 52.2977C93.0563 52.4319 92.9941 52.5938 92.9815 52.7633C92.9854 52.9364 93.0486 53.1028 93.1607 53.2347C93.2727 53.3667 93.4268 53.4562 93.5969 53.488C94.2763 53.6838 94.9699 53.8265 95.6715 53.9149C96.6976 54.0459 97.7128 54.2516 98.709 54.5304C99.5164 54.7573 100.245 55.2042 100.813 55.8211C101.441 56.537 101.762 57.4715 101.707 58.4223C101.715 59.3167 101.421 60.1878 100.873 60.8944C100.211 61.6815 99.3455 62.272 98.3714 62.602C97.0952 63.0424 95.7505 63.2509 94.4009 63.2175C93.1775 63.2144 91.9587 63.0712 90.7679 62.7907Z" fill="white"/>
<path d="M118.183 49.6539C118.785 50.3119 119.246 51.0869 119.536 51.9306C119.827 52.7744 119.94 53.6689 119.87 54.5585V62.9477H114.659V55.4023C114.659 53.4167 113.845 52.4239 112.217 52.4239C111.814 52.4032 111.412 52.4708 111.038 52.6217C110.665 52.7726 110.328 53.0032 110.053 53.2976C109.464 54.0315 109.174 54.9602 109.239 55.8987V62.9675H104.018V43.6475H109.239V49.6043C109.809 49.0752 110.486 48.6755 111.224 48.4328C112.019 48.1566 112.855 48.0223 113.696 48.0357C114.514 47.987 115.334 48.1054 116.106 48.3836C116.877 48.6618 117.584 49.0939 118.183 49.6539Z" fill="white"/>
<path d="M139.07 48.2828V62.9466H134.107V61.4872C133.552 62.0815 132.87 62.5435 132.113 62.8391C131.355 63.1346 130.541 63.2562 129.73 63.1948C128.443 63.211 127.174 62.8929 126.047 62.2715C124.94 61.6433 124.027 60.7228 123.407 59.6107C122.742 58.3936 122.4 57.0263 122.414 55.6395C122.392 54.2517 122.735 52.8825 123.407 51.6682C124.016 50.5558 124.932 49.6424 126.047 49.0373C127.171 48.4081 128.442 48.0863 129.73 48.1041C130.488 48.0619 131.247 48.1748 131.961 48.436C132.674 48.6972 133.327 49.1011 133.879 49.6231V48.3622H139.07V48.2828ZM133.115 58.211C133.735 57.4997 134.049 56.5716 133.988 55.6295C134.019 55.1676 133.957 54.7041 133.807 54.2661C133.657 53.8281 133.422 53.4243 133.115 53.0781C132.826 52.7753 132.478 52.5367 132.091 52.3776C131.705 52.2185 131.289 52.1425 130.871 52.1547C130.453 52.1425 130.038 52.2185 129.651 52.3776C129.265 52.5367 128.916 52.7753 128.628 53.0781C128.32 53.4243 128.085 53.8281 127.935 54.2661C127.785 54.7041 127.724 55.1676 127.754 55.6295C127.693 56.5716 128.007 57.4997 128.628 58.211C129.225 58.8027 130.031 59.1346 130.871 59.1346C131.711 59.1346 132.518 58.8027 133.115 58.211Z" fill="white"/>
<path d="M149.465 48.529C150.397 48.1783 151.388 48.0098 152.383 48.0326V52.649C151.907 52.649 151.51 52.5697 151.202 52.5697C150.716 52.5146 150.225 52.5706 149.764 52.7335C149.303 52.8964 148.885 53.1619 148.542 53.51C148.199 53.8581 147.939 54.2796 147.782 54.7428C147.626 55.2059 147.577 55.6986 147.639 56.1835V62.9148H142.457V48.2808H147.42V50.0479C147.952 49.366 148.659 48.8412 149.465 48.529Z" fill="white"/>
<path d="M164.193 58.9738C164.772 58.7353 165.306 58.3996 165.772 57.981L168.491 60.7808C167.092 62.3793 164.987 63.1636 162.178 63.1636C160.597 63.1901 159.031 62.8503 157.602 62.1708C156.677 61.7185 155.856 61.0784 155.192 60.2913C154.528 59.5043 154.035 58.5875 153.744 57.5993C153.454 56.6111 153.372 55.5733 153.505 54.5519C153.638 53.5305 153.982 52.5479 154.515 51.6668C155.226 50.5002 156.261 49.5655 157.493 48.9763C158.796 48.312 160.24 47.9715 161.702 47.9835C163.075 47.9578 164.434 48.2536 165.672 48.8472C166.86 49.4096 167.857 50.3068 168.541 51.4285C169.263 52.6253 169.631 54.0022 169.603 55.3997L158.992 57.3854C159.558 58.5668 160.68 59.1526 162.367 59.1526C162.982 59.2256 163.605 59.1645 164.193 58.9738ZM159.508 52.5206C158.891 53.1546 158.536 53.9987 158.516 54.8835L164.551 53.7021C164.38 53.1156 164.034 52.5957 163.558 52.2129C163.023 51.8404 162.384 51.6458 161.732 51.6568C160.906 51.6417 160.107 51.952 159.508 52.5206Z" fill="white"/>
<path d="M95.7915 19.4561C95.8323 20.7105 95.6205 21.9604 95.1688 23.1314C94.717 24.3023 94.0345 25.3705 93.1617 26.2723C92.2889 27.1741 91.2437 27.8912 90.0883 28.3809C88.9329 28.8707 87.6908 29.1231 86.4359 29.1231C85.181 29.1231 83.939 28.8707 82.7835 28.3809C81.6281 27.8912 80.583 27.1741 79.7102 26.2723C78.8374 25.3705 78.1547 24.3023 77.703 23.1314C77.2512 21.9604 77.0395 20.7105 77.0804 19.4561H80.7531C80.721 20.2251 80.8447 20.9927 81.1168 21.7127C81.389 22.4327 81.8038 23.0902 82.3365 23.6457C82.8693 24.2012 83.5089 24.6432 84.2168 24.9451C84.9246 25.2471 85.6862 25.4027 86.4557 25.4027C87.2253 25.4027 87.987 25.2471 88.6949 24.9451C89.4027 24.6432 90.0422 24.2012 90.5749 23.6457C91.1076 23.0902 91.5225 22.4327 91.7946 21.7127C92.0668 20.9927 92.1905 20.2251 92.1584 19.4561H95.7915Z" fill="#FF5500"/>
<path d="M101.548 5.10032C99.0365 5.10032 96.2869 5.04069 93.7755 5.04069C92.0384 5.04069 89.3187 4.62372 88.3856 6.53985C88.1327 7.10523 88.0256 7.725 88.0742 8.34247C88.1228 8.95994 88.3253 9.55544 88.6634 10.0743C89.5469 11.4146 91.2641 11.6628 92.763 11.6628C95.7409 11.6628 98.8082 11.2656 101.131 13.4597C104 16.18 103.92 20.7172 102.799 24.202C102.186 26.0933 101.296 27.8832 100.158 29.5135C99.0063 31.1594 97.5988 32.6106 95.9891 33.8124C94.2871 35.0929 92.3415 36.0119 90.2715 36.5129C87.8723 37.0999 85.3715 37.1372 82.9558 36.6221C76.9008 35.3215 72.1462 30.3277 70.1609 24.7084C69.6209 23.181 69.2871 21.5883 69.1683 19.9726C68.9995 17.9175 69.0789 15.8525 69.0987 13.7974C69.0987 12.467 69.0987 11.1466 69.0987 9.82612V1.11913H81.4571V5.14989H73.2182C73.2182 9.36934 73.2182 14.2441 73.2182 18.4834C73.3005 22.1008 74.6736 25.5694 77.0895 28.2626C79.6405 31.1318 83.343 33.2266 87.3135 32.9288C90.7976 32.6706 93.8649 30.4369 96.0189 27.8258C97.522 26.0779 98.6293 24.0254 99.2648 21.8093C99.6916 20.1712 99.9498 18.126 98.8082 16.7062C97.8889 15.7244 96.6185 15.1462 95.2744 15.0979C93.1601 14.8894 90.9665 15.366 88.9018 14.7405C87.3127 14.2894 85.9343 13.2907 85.0106 11.9209C84.5253 11.2002 84.1877 10.3904 84.0173 9.53828C83.8469 8.68621 83.8472 7.80885 84.018 6.95687C84.363 5.20788 85.3379 3.64634 86.7577 2.5686C88.1288 1.55506 89.7876 1.00558 91.4925 1H93.7061C94.8476 1 95.9891 1 97.1306 1H101.588V5.10032H101.548Z" fill="#FF5500"/>
</svg>
