<svg width="190" height="40" viewBox="0 0 190 40" fill="none" xmlns="http://www.w3.org/2000/svg">
<path d="M65.7851 17.4031C64.5159 16.6963 63.1376 16.2038 61.7062 15.9455V28.1479H57.1917V15.9455C55.7555 16.1935 54.3733 16.6866 53.1063 17.4031L51.6016 14.1823C52.749 13.5066 53.9894 13.0005 55.2835 12.6801C58.0153 11.9927 60.8762 11.9927 63.608 12.6801C64.9021 13.0005 66.1424 13.5066 67.2899 14.1823L65.7851 17.4031Z" fill="#212121"/>
<path d="M75.2606 24.857C75.7287 24.6611 76.1614 24.3901 76.5412 24.055L78.7952 26.3783C77.6298 27.6939 75.8817 28.3516 73.5509 28.3516C72.2369 28.3809 70.9343 28.104 69.7472 27.5432C68.6985 27.0624 67.8138 26.2877 67.2018 25.314C66.5898 24.3404 66.2771 23.2104 66.3022 22.0626C66.284 20.9286 66.5929 19.8131 67.1923 18.848C67.787 17.8944 68.636 17.1233 69.6448 16.6201C70.727 16.0728 71.9269 15.7953 73.1411 15.8117C74.2827 15.7972 75.4119 16.0478 76.4388 16.5438C77.4189 17.0146 78.2448 17.7517 78.8209 18.6698C79.4344 19.6685 79.7436 20.8228 79.711 21.9926L70.887 23.6476C71.3566 24.6193 72.2915 25.1053 73.6917 25.1053C74.2257 25.1202 74.7577 25.036 75.2606 24.857ZM71.3737 19.5164C70.8669 20.0508 70.5811 20.7553 70.5733 21.4897L75.5935 20.5285C75.4519 20.0343 75.1447 19.6031 74.7227 19.3063C74.2175 18.9723 73.6156 18.8132 73.0102 18.8535C72.4048 18.8937 71.8297 19.1313 71.3737 19.5292V19.5164Z" fill="#212121"/>
<path d="M93.5059 17.1548C94.4408 18.0502 94.9083 19.4018 94.9083 21.2096V28.1478H90.5731V21.9034C90.5731 20.2484 89.8986 19.4209 88.5496 19.4209C88.2169 19.4055 87.8847 19.4611 87.5754 19.5841C87.2661 19.707 86.987 19.8945 86.7567 20.1338C86.2765 20.7443 86.0476 21.5134 86.1164 22.2853V28.1478H81.7812V16.0154H85.9114V17.333C86.4028 16.8392 86.9944 16.4551 87.6468 16.2063C88.3431 15.9389 89.0839 15.805 89.8303 15.8117C91.1861 15.7578 92.508 16.2409 93.5059 17.1548Z" fill="#212121"/>
<path d="M100.428 27.5431C99.4035 27.0427 98.5389 26.2692 97.9308 25.3088C97.325 24.3342 97.0118 23.208 97.0279 22.0625C97.0119 20.923 97.3252 19.8028 97.9308 18.8352C98.534 17.8769 99.3945 17.1053 100.415 16.6073C101.533 16.064 102.764 15.7913 104.008 15.8116C105.255 15.7929 106.49 16.0654 107.613 16.6073C108.643 17.0978 109.51 17.8733 110.108 18.8408C110.707 19.8084 111.012 20.9269 110.987 22.0625C111.002 23.206 110.693 24.3307 110.097 25.3088C109.496 26.27 108.635 27.0442 107.613 27.5431C106.493 28.095 105.257 28.3723 104.008 28.3515C102.766 28.3717 101.539 28.0944 100.428 27.5431ZM105.877 24.1948C106.393 23.6068 106.655 22.8409 106.607 22.0625C106.652 21.292 106.39 20.5351 105.877 19.9555C105.38 19.4657 104.708 19.191 104.008 19.191C103.307 19.191 102.635 19.4657 102.138 19.9555C101.625 20.5351 101.363 21.292 101.408 22.0625C101.36 22.8409 101.623 23.6068 102.138 24.1948C102.382 24.4412 102.673 24.6368 102.994 24.7703C103.315 24.9038 103.66 24.9727 104.008 24.9727C104.356 24.9727 104.7 24.9038 105.021 24.7703C105.342 24.6368 105.633 24.4412 105.877 24.1948Z" fill="#212121"/>
<path d="M118.841 16.2253C119.616 15.9377 120.44 15.7974 121.267 15.8115V19.6308C120.942 19.5901 120.615 19.5667 120.288 19.5607C119.493 19.5154 118.712 19.7804 118.111 20.2992C117.829 20.6013 117.614 20.958 117.479 21.347C117.343 21.7359 117.29 22.1486 117.323 22.5589V28.1349H112.988V16.0153H117.118V17.4729C117.57 16.9115 118.165 16.4807 118.841 16.2253Z" fill="#212121"/>
<path d="M124.51 28.0015C123.66 27.8295 122.843 27.5245 122.09 27.0977L123.37 24.1887C123.997 24.5569 124.674 24.8315 125.381 25.0034C126.131 25.2038 126.903 25.3065 127.68 25.309C128.187 25.3383 128.694 25.2647 129.172 25.0926C129.306 25.0505 129.424 24.9653 129.505 24.8501C129.586 24.735 129.626 24.5964 129.62 24.456C129.62 24.1887 129.44 23.9977 129.082 23.8895C128.526 23.7355 127.959 23.6269 127.385 23.5649C126.534 23.4688 125.691 23.3114 124.862 23.0938C124.18 22.9028 123.562 22.5309 123.076 22.018C122.541 21.4144 122.27 20.6246 122.32 19.822C122.313 19.072 122.564 18.3419 123.031 17.7532C123.573 17.0971 124.287 16.6016 125.093 16.321C126.133 15.9474 127.234 15.7683 128.339 15.7927C129.236 15.7914 130.131 15.8831 131.009 16.0664C131.782 16.2074 132.528 16.4628 133.225 16.8239L131.944 19.7138C130.854 19.117 129.628 18.8081 128.384 18.8163C127.871 18.7854 127.358 18.8657 126.879 19.0518C126.559 19.2109 126.399 19.4146 126.399 19.6884C126.399 19.9621 126.572 20.1657 126.924 20.2803C127.493 20.4396 128.073 20.5545 128.659 20.624C129.523 20.7411 130.379 20.9133 131.22 21.1396C131.887 21.336 132.489 21.7026 132.968 22.2027C133.49 22.7999 133.755 23.5773 133.705 24.3669C133.709 25.1096 133.461 25.8319 133.001 26.4165C132.451 27.0739 131.728 27.5655 130.913 27.836C129.847 28.2034 128.724 28.3781 127.596 28.3516C126.557 28.3563 125.521 28.2387 124.51 28.0015Z" fill="#212121"/>
<path d="M147.299 17.1548C148.234 18.0502 148.701 19.4018 148.701 21.2096V28.1478H144.373V21.9034C144.373 20.2484 143.696 19.4209 142.343 19.4209C142.01 19.4054 141.678 19.4611 141.368 19.584C141.059 19.707 140.78 19.8945 140.55 20.1338C140.069 20.7443 139.841 21.5134 139.909 22.2853V28.1478H135.574V12.1643H139.909V17.1357C140.39 16.6965 140.957 16.3605 141.574 16.149C142.233 15.9218 142.926 15.8076 143.623 15.8117C144.979 15.7578 146.301 16.2408 147.299 17.1548Z" fill="#212121"/>
<path d="M164.664 16.0154V28.1478H160.534V26.9384C159.736 27.8805 158.522 28.3515 156.891 28.3515C155.819 28.3634 154.762 28.0979 153.824 27.5812C152.9 27.0632 152.141 26.2979 151.634 25.3725C151.099 24.3511 150.82 23.2169 150.82 22.0657C150.82 20.9145 151.099 19.7802 151.634 18.7588C152.142 17.8405 152.901 17.0837 153.824 16.5755C154.762 16.0608 155.819 15.7975 156.891 15.8116C157.521 15.7797 158.151 15.8762 158.742 16.0951C159.334 16.314 159.874 16.6508 160.329 17.0847V16.0345L164.664 16.0154ZM159.67 24.1949C160.185 23.6068 160.447 22.841 160.4 22.0625C160.445 21.2921 160.182 20.5351 159.67 19.9555C159.172 19.4657 158.5 19.191 157.8 19.191C157.1 19.191 156.428 19.4657 155.93 19.9555C155.418 20.5351 155.155 21.2921 155.2 22.0625C155.153 22.841 155.415 23.6068 155.93 24.1949C156.175 24.4412 156.466 24.6368 156.787 24.7704C157.108 24.9039 157.452 24.9727 157.8 24.9727C158.148 24.9727 158.492 24.9039 158.813 24.7704C159.134 24.6368 159.426 24.4412 159.67 24.1949Z" fill="#212121"/>
<path d="M173.299 16.2255C174.075 15.9385 174.898 15.7981 175.726 15.8117V19.6309C175.401 19.59 175.074 19.5667 174.746 19.5609C173.951 19.5156 173.17 19.7806 172.569 20.2993C172.288 20.6014 172.073 20.9582 171.937 21.3471C171.802 21.7361 171.749 22.1488 171.782 22.5591V28.1351H167.453V16.0154H171.577V17.473C172.03 16.913 172.624 16.4825 173.299 16.2255Z" fill="#212121"/>
<path d="M185.542 24.8569C186.01 24.661 186.443 24.3901 186.823 24.0549L189.083 26.3783C187.914 27.6938 186.166 28.3515 183.839 28.3515C182.512 28.3859 181.196 28.1089 179.997 27.5431C178.95 27.0597 178.067 26.2843 177.456 25.3113C176.844 24.3383 176.53 23.2097 176.552 22.0625C176.534 20.9285 176.843 19.813 177.442 18.848C178.038 17.8957 178.887 17.1249 179.894 16.6201C180.979 16.0734 182.181 15.796 183.397 15.8117C184.537 15.7972 185.664 16.0479 186.688 16.5437C187.67 17.0116 188.497 17.7494 189.071 18.6697C189.684 19.6685 189.993 20.8227 189.961 21.9925L181.137 23.6475C181.611 24.6193 182.545 25.1052 183.941 25.1052C184.486 25.1254 185.03 25.0411 185.542 24.8569ZM181.655 19.5164C181.153 20.0482 180.87 20.7476 180.861 21.4769L185.875 20.5157C185.733 20.0233 185.429 19.5928 185.011 19.2936C184.504 18.9601 183.901 18.8013 183.295 18.8416C182.689 18.8818 182.113 19.1189 181.655 19.5164Z" fill="#212121"/>
<path d="M29.5918 20.554C29.6407 21.9344 29.4094 23.3104 28.9117 24.6001C28.414 25.8897 27.6601 27.0666 26.695 28.0603C25.7298 29.0541 24.5733 29.8445 23.2942 30.3843C22.0152 30.9241 20.6398 31.2022 19.2503 31.2022C17.8607 31.2022 16.4855 30.9241 15.2064 30.3843C13.9274 29.8445 12.7707 29.0541 11.8056 28.0603C10.8405 27.0666 10.0866 25.8897 9.58888 24.6001C9.09117 23.3104 8.85987 21.9344 8.90875 20.554H12.9429C12.916 21.392 13.0589 22.2269 13.3629 23.009C13.667 23.7912 14.1261 24.5046 14.7129 25.1069C15.2998 25.7091 16.0025 26.188 16.7792 26.5151C17.5559 26.8421 18.3907 27.0106 19.2343 27.0106C20.0778 27.0106 20.9127 26.8421 21.6894 26.5151C22.4661 26.188 23.1688 25.7091 23.7557 25.1069C24.3425 24.5046 24.8016 23.7912 25.1057 23.009C25.4097 22.2269 25.5526 21.392 25.5257 20.554H29.5918Z" fill="#FF5500"/>
<path d="M35.9145 4.62769C33.1419 4.5895 30.1002 4.55767 27.3275 4.55131C25.4065 4.55131 22.397 4.09936 21.3852 6.21904C21.1025 6.84351 20.9818 7.52851 21.0344 8.21133C21.087 8.89415 21.3111 9.55298 21.6862 10.1274C22.6595 11.6169 24.5549 11.897 26.1686 11.8906C29.4151 11.8906 32.8473 11.4451 35.4086 13.8894C38.5719 16.9066 38.4823 21.9479 37.2464 25.8054C36.5704 27.9035 35.5842 29.8901 34.3201 31.6997C33.0563 33.5306 31.5038 35.1469 29.7224 36.4865C27.8391 37.8915 25.6925 38.9086 23.4087 39.4782C20.7637 40.128 18.0047 40.1715 15.3404 39.6055C8.6488 38.1733 3.39803 32.6036 1.20807 26.3337C0.615658 24.6353 0.245432 22.8681 0.10662 21.0758C-0.0662726 18.797 0.0169874 16.5055 0.0426011 14.2267C0.0426011 12.7499 0.0426011 11.2731 0.0426011 9.7709V0.108277H13.6755V4.56405H4.62106C4.62106 9.26171 4.58264 14.6659 4.62106 19.3572C4.70648 23.3518 6.2155 27.1865 8.87934 30.1784C11.7032 33.3611 15.795 35.6908 20.1686 35.3662C24.0106 35.0798 27.398 32.5909 29.7737 29.7074C31.4385 27.7689 32.6618 25.4953 33.3596 23.0427C33.827 21.2286 34.1152 18.9562 32.8409 17.384C31.8318 16.3036 30.4357 15.661 28.954 15.5953C26.6232 15.3597 24.1835 15.8944 21.9103 15.207C20.1551 14.6955 18.6337 13.5927 17.6072 12.0879C16.5185 10.4805 16.1091 8.51209 16.4674 6.60732C16.847 4.66998 17.9237 2.93652 19.4962 1.73141C21.0034 0.602494 22.8406 -0.0055134 24.7278 3.76755e-05C25.541 3.76755e-05 26.3542 3.76755e-05 27.1675 3.76755e-05H30.9583H34.5122H35.8953C35.8953 0.292846 35.8953 1.46405 35.8953 2.43796L35.9145 4.62769Z" fill="#FF5500"/>
</svg>
